<svg width="1200" height="420" viewBox="0 0 1200 420" fill="none" xmlns="http://www.w3.org/2000/svg">
  <rect width="1200" height="420" fill="transparent"/>
  <circle cx="334" cy="65" r="28" fill="#4A4A4D"/>

  <text x="0" y="265" font-family="Arial, Helvetica, sans-serif" font-size="210" font-weight="700" letter-spacing="-8" fill="#4A4A4D">rai</text>
  <text x="372" y="265" font-family="Arial, Helvetica, sans-serif" font-size="210" font-weight="700" letter-spacing="-8" fill="#18A8E1">z</text>
  <text x="518" y="265" font-family="Arial, Helvetica, sans-serif" font-size="210" font-weight="700" letter-spacing="-8" fill="#4A4A4D">ers</text>

  <text x="3" y="370" font-family="Arial, Helvetica, sans-serif" font-size="62" font-weight="700" letter-spacing="7" fill="#4A4A4D">THE INVESTMENT CIRCLE</text>

  <path d="M1001 190C975 223 974 274 995 305C1003 317 1013 325 1025 330C1016 310 1014 287 1018 262C1022 233 1034 207 1051 185L1001 190Z" fill="#4A4A4D"/>
  <path d="M1038 190C1063 220 1073 255 1072 287C1071 306 1066 321 1059 333C1078 327 1092 317 1102 301C1125 266 1122 217 1094 182L1038 190Z" fill="#4A4A4D"/>
  <path d="M1048 130C1040 154 1042 178 1052 201C1063 182 1068 160 1066 138C1064 116 1057 99 1046 83C1041 97 1041 113 1048 130Z" fill="#18A8E1"/>
  <path d="M1091 149C1074 162 1064 180 1061 199C1079 194 1094 183 1105 167C1117 150 1122 132 1121 113C1108 121 1098 133 1091 149Z" fill="#18A8E1"/>
  <path d="M1117 210C1103 223 1096 240 1095 257C1111 252 1126 242 1136 227C1147 211 1151 194 1149 177C1137 185 1126 196 1117 210Z" fill="#18A8E1"/>
  <path d="M1138 281C1124 267 1108 260 1092 260C1099 275 1112 287 1130 295C1147 303 1164 305 1178 301C1167 291 1153 284 1138 281Z" fill="#18A8E1"/>
  <path d="M1102 332C1085 320 1067 316 1050 319C1059 333 1074 344 1092 351C1110 357 1128 357 1143 351C1131 341 1117 334 1102 332Z" fill="#18A8E1"/>
  <path d="M997 147C1008 163 1022 174 1039 181C1037 163 1028 148 1014 136C999 124 983 118 967 119C977 130 986 140 997 147Z" fill="#18A8E1"/>
  <path d="M978 205C994 214 1010 217 1026 214C1018 200 1005 188 988 180C971 172 954 170 940 173C950 185 962 197 978 205Z" fill="#18A8E1"/>
  <path d="M974 273C992 277 1009 275 1024 268C1012 257 996 250 978 248C959 245 943 248 929 255C942 264 957 270 974 273Z" fill="#18A8E1"/>
  <circle cx="986" cy="117" r="26" fill="#18A8E1"/>
  <path d="M972 108C977 99 987 93 998 93C1006 93 1013 96 1018 102C1013 102 1008 104 1005 108C1000 105 994 104 988 105C984 102 978 102 972 108Z" fill="#0D1B2A"/>
  <path d="M969 119C965 115 961 111 957 109C956 117 959 125 965 131C970 137 976 140 983 141C980 135 978 129 978 123C974 122 971 121 969 119Z" fill="#0D1B2A"/>
  <path d="M997 127C994 132 994 137 995 143C1002 141 1009 137 1013 131C1018 125 1020 119 1019 113C1014 117 1007 120 1000 121C999 123 998 125 997 127Z" fill="#0D1B2A"/>
  <path d="M987 121C987 114 991 108 997 104C1002 108 1006 114 1006 121C1006 130 1000 137 992 139C989 134 987 128 987 121Z" fill="#0D1B2A"/>
  <text x="1117" y="215" font-family="Arial, Helvetica, sans-serif" font-size="34" font-weight="400" fill="#0D1B2A">€</text>
</svg>
